<svg width="233" height="43" viewBox="0 0 233 43" fill="none" xmlns="http://www.w3.org/2000/svg">
<g filter="url(#filter0_d_225_2)">
<path d="M19.8379 23.541H9.71289V34H4.43945V8.40625H21.1035V12.6777H9.71289V19.2871H19.8379V23.541ZM37.852 34C37.6176 33.543 37.4477 32.9746 37.3422 32.2949C36.1117 33.666 34.5121 34.3516 32.5434 34.3516C30.6801 34.3516 29.1332 33.8125 27.9027 32.7344C26.684 31.6562 26.0746 30.2969 26.0746 28.6562C26.0746 26.6406 26.8188 25.0938 28.307 24.0156C29.807 22.9375 31.9691 22.3926 34.7934 22.3809H37.1313V21.291C37.1313 20.4121 36.9027 19.709 36.4457 19.1816C36.0004 18.6543 35.2914 18.3906 34.3188 18.3906C33.4633 18.3906 32.7895 18.5957 32.2973 19.0059C31.8168 19.416 31.5766 19.9785 31.5766 20.6934H26.4965C26.4965 19.5918 26.8363 18.5723 27.516 17.6348C28.1957 16.6973 29.1566 15.9648 30.3988 15.4375C31.641 14.8984 33.0355 14.6289 34.5824 14.6289C36.9262 14.6289 38.7836 15.2207 40.1547 16.4043C41.5375 17.5762 42.2289 19.2285 42.2289 21.3613V29.6055C42.2406 31.4102 42.4926 32.7754 42.9848 33.7012V34H37.852ZM33.6508 30.4668C34.4008 30.4668 35.0922 30.3027 35.725 29.9746C36.3578 29.6348 36.8266 29.1836 37.1313 28.6211V25.3516H35.2328C32.6898 25.3516 31.3363 26.2305 31.1723 27.9883L31.1547 28.2871C31.1547 28.9199 31.3773 29.4414 31.8227 29.8516C32.268 30.2617 32.8773 30.4668 33.6508 30.4668ZM60.4188 19.7441C59.7273 19.6504 59.118 19.6035 58.5906 19.6035C56.6688 19.6035 55.409 20.2539 54.8113 21.5547V34H49.7313V14.9805H54.5301L54.6707 17.248C55.6902 15.502 57.1023 14.6289 58.907 14.6289C59.4695 14.6289 59.9969 14.7051 60.4891 14.8574L60.4188 19.7441ZM76.9738 34C76.7395 33.543 76.5695 32.9746 76.4641 32.2949C75.2336 33.666 73.634 34.3516 71.6652 34.3516C69.802 34.3516 68.2551 33.8125 67.0246 32.7344C65.8059 31.6562 65.1965 30.2969 65.1965 28.6562C65.1965 26.6406 65.9406 25.0938 67.4289 24.0156C68.9289 22.9375 71.091 22.3926 73.9152 22.3809H76.2531V21.291C76.2531 20.4121 76.0246 19.709 75.5676 19.1816C75.1223 18.6543 74.4133 18.3906 73.4406 18.3906C72.5852 18.3906 71.9113 18.5957 71.4191 19.0059C70.9387 19.416 70.6984 19.9785 70.6984 20.6934H65.6184C65.6184 19.5918 65.9582 18.5723 66.6379 17.6348C67.3176 16.6973 68.2785 15.9648 69.5207 15.4375C70.7629 14.8984 72.1574 14.6289 73.7043 14.6289C76.048 14.6289 77.9055 15.2207 79.2766 16.4043C80.6594 17.5762 81.3508 19.2285 81.3508 21.3613V29.6055C81.3625 31.4102 81.6145 32.7754 82.1066 33.7012V34H76.9738ZM72.7727 30.4668C73.5227 30.4668 74.2141 30.3027 74.8469 29.9746C75.4797 29.6348 75.9484 29.1836 76.2531 28.6211V25.3516H74.3547C71.8117 25.3516 70.4582 26.2305 70.2941 27.9883L70.2766 28.2871C70.2766 28.9199 70.4992 29.4414 70.9445 29.8516C71.3898 30.2617 71.9992 30.4668 72.7727 30.4668ZM93.8102 17.0547C95.1578 15.4375 96.8512 14.6289 98.8902 14.6289C103.015 14.6289 105.107 17.0254 105.166 21.8184V34H100.086V21.959C100.086 20.8691 99.8512 20.0664 99.3824 19.5508C98.9137 19.0234 98.1344 18.7598 97.0445 18.7598C95.5563 18.7598 94.4781 19.334 93.8102 20.4824V34H88.7301V7H93.8102V17.0547Z" fill="#222222"/>
<path d="M133.023 25.4746C132.824 28.2285 131.805 30.3965 129.965 31.9785C128.137 33.5605 125.723 34.3516 122.723 34.3516C119.441 34.3516 116.857 33.25 114.971 31.0469C113.096 28.832 112.158 25.7969 112.158 21.9414V20.377C112.158 17.916 112.592 15.748 113.459 13.873C114.326 11.998 115.562 10.5625 117.168 9.56641C118.785 8.55859 120.66 8.05469 122.793 8.05469C125.746 8.05469 128.125 8.8457 129.93 10.4277C131.734 12.0098 132.777 14.2305 133.059 17.0898H127.785C127.656 15.4375 127.193 14.2422 126.396 13.5039C125.611 12.7539 124.41 12.3789 122.793 12.3789C121.035 12.3789 119.717 13.0117 118.838 14.2773C117.971 15.5312 117.525 17.4824 117.502 20.1309V22.0645C117.502 24.8301 117.918 26.8516 118.75 28.1289C119.594 29.4062 120.918 30.0449 122.723 30.0449C124.352 30.0449 125.564 29.6758 126.361 28.9375C127.17 28.1875 127.633 27.0332 127.75 25.4746H133.023ZM138.961 24.3145C138.961 22.4277 139.325 20.7461 140.051 19.2695C140.778 17.793 141.821 16.6504 143.18 15.8418C144.551 15.0332 146.139 14.6289 147.944 14.6289C150.51 14.6289 152.602 15.4141 154.219 16.9844C155.848 18.5547 156.756 20.6875 156.944 23.3828L156.979 24.6836C156.979 27.6016 156.164 29.9453 154.536 31.7148C152.907 33.4727 150.721 34.3516 147.979 34.3516C145.237 34.3516 143.045 33.4727 141.405 31.7148C139.776 29.957 138.961 27.5664 138.961 24.543V24.3145ZM144.041 24.6836C144.041 26.4883 144.381 27.8711 145.061 28.832C145.741 29.7812 146.713 30.2559 147.979 30.2559C149.209 30.2559 150.17 29.7871 150.862 28.8496C151.553 27.9004 151.899 26.3887 151.899 24.3145C151.899 22.5449 151.553 21.1738 150.862 20.2012C150.17 19.2285 149.198 18.7422 147.944 18.7422C146.702 18.7422 145.741 19.2285 145.061 20.2012C144.381 21.1621 144.041 22.6562 144.041 24.6836ZM162.917 24.3496C162.917 21.3848 163.579 19.0234 164.903 17.2656C166.239 15.5078 168.061 14.6289 170.37 14.6289C172.221 14.6289 173.751 15.3203 174.958 16.7031V7H180.055V34H175.468L175.221 31.9785C173.956 33.5605 172.327 34.3516 170.335 34.3516C168.096 34.3516 166.298 33.4727 164.938 31.7148C163.591 29.9453 162.917 27.4902 162.917 24.3496ZM167.997 24.7188C167.997 26.5 168.307 27.8652 168.929 28.8145C169.55 29.7637 170.452 30.2383 171.636 30.2383C173.206 30.2383 174.313 29.5762 174.958 28.252V20.7461C174.325 19.4219 173.229 18.7598 171.671 18.7598C169.221 18.7598 167.997 20.7461 167.997 24.7188ZM196.347 34.3516C193.558 34.3516 191.284 33.4961 189.527 31.7852C187.78 30.0742 186.907 27.7949 186.907 24.9473V24.4551C186.907 22.5449 187.277 20.8398 188.015 19.3398C188.753 17.8281 189.796 16.668 191.144 15.8594C192.503 15.0391 194.05 14.6289 195.784 14.6289C198.386 14.6289 200.431 15.4492 201.919 17.0898C203.419 18.7305 204.169 21.0566 204.169 24.0684V26.1426H192.058C192.222 27.3848 192.714 28.3809 193.534 29.1309C194.366 29.8809 195.415 30.2559 196.681 30.2559C198.638 30.2559 200.167 29.5469 201.269 28.1289L203.765 30.9238C203.003 32.002 201.972 32.8457 200.671 33.4551C199.37 34.0527 197.929 34.3516 196.347 34.3516ZM195.767 18.7422C194.759 18.7422 193.939 19.082 193.306 19.7617C192.685 20.4414 192.286 21.4141 192.111 22.6797H199.177V22.2754C199.154 21.1504 198.849 20.2832 198.263 19.6738C197.677 19.0527 196.845 18.7422 195.767 18.7422ZM220.97 28.7441C220.97 28.123 220.66 27.6367 220.039 27.2852C219.429 26.9219 218.445 26.5996 217.086 26.3184C212.562 25.3691 210.3 23.4473 210.3 20.5527C210.3 18.8652 210.998 17.459 212.392 16.334C213.798 15.1973 215.632 14.6289 217.894 14.6289C220.308 14.6289 222.236 15.1973 223.677 16.334C225.13 17.4707 225.857 18.9473 225.857 20.7637H220.777C220.777 20.0371 220.543 19.4395 220.074 18.9707C219.605 18.4902 218.873 18.25 217.877 18.25C217.021 18.25 216.359 18.4434 215.89 18.8301C215.421 19.2168 215.187 19.709 215.187 20.3066C215.187 20.8691 215.451 21.3262 215.978 21.6777C216.517 22.0176 217.42 22.3164 218.685 22.5742C219.951 22.8203 221.017 23.1016 221.884 23.418C224.568 24.4023 225.91 26.1074 225.91 28.5332C225.91 30.2676 225.166 31.6738 223.677 32.752C222.189 33.8184 220.267 34.3516 217.912 34.3516C216.318 34.3516 214.9 34.0703 213.658 33.5078C212.427 32.9336 211.461 32.1543 210.757 31.1699C210.054 30.1738 209.703 29.1016 209.703 27.9531H214.519C214.566 28.8555 214.9 29.5469 215.521 30.0273C216.142 30.5078 216.974 30.748 218.017 30.748C218.99 30.748 219.722 30.5664 220.214 30.2031C220.718 29.8281 220.97 29.3418 220.97 28.7441Z" fill="#2CB1BC"/>
</g>
<defs>
<filter id="filter0_d_225_2" x="0.439453" y="7" width="229.47" height="35.3516" filterUnits="userSpaceOnUse" color-interpolation-filters="sRGB">
<feFlood flood-opacity="0" result="BackgroundImageFix"/>
<feColorMatrix in="SourceAlpha" type="matrix" values="0 0 0 0 0 0 0 0 0 0 0 0 0 0 0 0 0 0 127 0" result="hardAlpha"/>
<feOffset dy="4"/>
<feGaussianBlur stdDeviation="2"/>
<feColorMatrix type="matrix" values="0 0 0 0 0 0 0 0 0 0 0 0 0 0 0 0 0 0 0.25 0"/>
<feBlend mode="normal" in2="BackgroundImageFix" result="effect1_dropShadow_225_2"/>
<feBlend mode="normal" in="SourceGraphic" in2="effect1_dropShadow_225_2" result="shape"/>
</filter>
</defs>
</svg>
