<svg width="233" height="32" viewBox="0 0 233 32" fill="none" xmlns="http://www.w3.org/2000/svg">
<g filter="url(#filter0_d_225_2)">
<path d="M52.0586 16.0273H45.3086V23H41.793V5.9375H52.9023V8.78516H45.3086V13.1914H52.0586V16.0273ZM64.068 23C63.9117 22.6953 63.7984 22.3164 63.7281 21.8633C62.9078 22.7773 61.8414 23.2344 60.5289 23.2344C59.2867 23.2344 58.2555 22.875 57.4352 22.1562C56.6227 21.4375 56.2164 20.5312 56.2164 19.4375C56.2164 18.0938 56.7125 17.0625 57.7047 16.3438C58.7047 15.625 60.1461 15.2617 62.0289 15.2539H63.5875V14.5273C63.5875 13.9414 63.4352 13.4727 63.1305 13.1211C62.8336 12.7695 62.3609 12.5938 61.7125 12.5938C61.1422 12.5938 60.693 12.7305 60.3648 13.0039C60.0445 13.2773 59.8844 13.6523 59.8844 14.1289H56.4977C56.4977 13.3945 56.7242 12.7148 57.1773 12.0898C57.6305 11.4648 58.2711 10.9766 59.0992 10.625C59.9273 10.2656 60.857 10.0859 61.8883 10.0859C63.4508 10.0859 64.6891 10.4805 65.6031 11.2695C66.525 12.0508 66.9859 13.1523 66.9859 14.5742V20.0703C66.9938 21.2734 67.1617 22.1836 67.4898 22.8008V23H64.068ZM61.2672 20.6445C61.7672 20.6445 62.2281 20.5352 62.65 20.3164C63.0719 20.0898 63.3844 19.7891 63.5875 19.4141V17.2344H62.3219C60.6266 17.2344 59.7242 17.8203 59.6148 18.9922L59.6031 19.1914C59.6031 19.6133 59.7516 19.9609 60.0484 20.2344C60.3453 20.5078 60.7516 20.6445 61.2672 20.6445ZM79.1125 13.4961C78.6516 13.4336 78.2453 13.4023 77.8938 13.4023C76.6125 13.4023 75.7727 13.8359 75.3742 14.7031V23H71.9875V10.3203H75.1867L75.2805 11.832C75.9602 10.668 76.9016 10.0859 78.1047 10.0859C78.4797 10.0859 78.8313 10.1367 79.1594 10.2383L79.1125 13.4961ZM90.1492 23C89.993 22.6953 89.8797 22.3164 89.8094 21.8633C88.9891 22.7773 87.9227 23.2344 86.6102 23.2344C85.368 23.2344 84.3367 22.875 83.5164 22.1562C82.7039 21.4375 82.2977 20.5312 82.2977 19.4375C82.2977 18.0938 82.7937 17.0625 83.7859 16.3438C84.7859 15.625 86.2273 15.2617 88.1102 15.2539H89.6687V14.5273C89.6687 13.9414 89.5164 13.4727 89.2117 13.1211C88.9148 12.7695 88.4422 12.5938 87.7937 12.5938C87.2234 12.5938 86.7742 12.7305 86.4461 13.0039C86.1258 13.2773 85.9656 13.6523 85.9656 14.1289H82.5789C82.5789 13.3945 82.8055 12.7148 83.2586 12.0898C83.7117 11.4648 84.3523 10.9766 85.1805 10.625C86.0086 10.2656 86.9383 10.0859 87.9695 10.0859C89.532 10.0859 90.7703 10.4805 91.6844 11.2695C92.6062 12.0508 93.0672 13.1523 93.0672 14.5742V20.0703C93.075 21.2734 93.243 22.1836 93.5711 22.8008V23H90.1492ZM87.3484 20.6445C87.8484 20.6445 88.3094 20.5352 88.7312 20.3164C89.1531 20.0898 89.4656 19.7891 89.6687 19.4141V17.2344H88.4031C86.7078 17.2344 85.8055 17.8203 85.6961 18.9922L85.6844 19.1914C85.6844 19.6133 85.8328 19.9609 86.1297 20.2344C86.4266 20.5078 86.8328 20.6445 87.3484 20.6445ZM101.373 11.7031C102.272 10.625 103.401 10.0859 104.76 10.0859C107.51 10.0859 108.905 11.6836 108.944 14.8789V23H105.557V14.9727C105.557 14.2461 105.401 13.7109 105.088 13.3672C104.776 13.0156 104.256 12.8398 103.53 12.8398C102.537 12.8398 101.819 13.2227 101.373 13.9883V23H97.9867V5H101.373V11.7031Z" fill="#222222"/>
<path d="M127.516 17.3164C127.383 19.1523 126.703 20.5977 125.477 21.6523C124.258 22.707 122.648 23.2344 120.648 23.2344C118.461 23.2344 116.738 22.5 115.48 21.0312C114.23 19.5547 113.605 17.5312 113.605 14.9609V13.918C113.605 12.2773 113.895 10.832 114.473 9.58203C115.051 8.33203 115.875 7.375 116.945 6.71094C118.023 6.03906 119.273 5.70312 120.695 5.70312C122.664 5.70312 124.25 6.23047 125.453 7.28516C126.656 8.33984 127.352 9.82031 127.539 11.7266H124.023C123.938 10.625 123.629 9.82812 123.098 9.33594C122.574 8.83594 121.773 8.58594 120.695 8.58594C119.523 8.58594 118.645 9.00781 118.059 9.85156C117.48 10.6875 117.184 11.9883 117.168 13.7539V15.043C117.168 16.8867 117.445 18.2344 118 19.0859C118.562 19.9375 119.445 20.3633 120.648 20.3633C121.734 20.3633 122.543 20.1172 123.074 19.625C123.613 19.125 123.922 18.3555 124 17.3164H127.516ZM131.474 16.543C131.474 15.2852 131.716 14.1641 132.201 13.1797C132.685 12.1953 133.38 11.4336 134.287 10.8945C135.201 10.3555 136.259 10.0859 137.462 10.0859C139.173 10.0859 140.568 10.6094 141.646 11.6562C142.732 12.7031 143.337 14.125 143.462 15.9219L143.486 16.7891C143.486 18.7344 142.943 20.2969 141.857 21.4766C140.771 22.6484 139.314 23.2344 137.486 23.2344C135.658 23.2344 134.197 22.6484 133.103 21.4766C132.017 20.3047 131.474 18.7109 131.474 16.6953V16.543ZM134.861 16.7891C134.861 17.9922 135.087 18.9141 135.541 19.5547C135.994 20.1875 136.642 20.5039 137.486 20.5039C138.306 20.5039 138.947 20.1914 139.408 19.5664C139.869 18.9336 140.099 17.9258 140.099 16.543C140.099 15.3633 139.869 14.4492 139.408 13.8008C138.947 13.1523 138.298 12.8281 137.462 12.8281C136.634 12.8281 135.994 13.1523 135.541 13.8008C135.087 14.4414 134.861 15.4375 134.861 16.7891ZM147.445 16.5664C147.445 14.5898 147.886 13.0156 148.769 11.8438C149.659 10.6719 150.874 10.0859 152.413 10.0859C153.648 10.0859 154.667 10.5469 155.472 11.4688V5H158.87V23H155.812L155.648 21.6523C154.804 22.707 153.718 23.2344 152.39 23.2344C150.898 23.2344 149.698 22.6484 148.792 21.4766C147.894 20.2969 147.445 18.6602 147.445 16.5664ZM150.831 16.8125C150.831 18 151.038 18.9102 151.452 19.543C151.866 20.1758 152.468 20.4922 153.257 20.4922C154.304 20.4922 155.042 20.0508 155.472 19.168V14.1641C155.05 13.2812 154.32 12.8398 153.28 12.8398C151.648 12.8398 150.831 14.1641 150.831 16.8125ZM169.731 23.2344C167.872 23.2344 166.356 22.6641 165.184 21.5234C164.02 20.3828 163.438 18.8633 163.438 16.9648V16.6367C163.438 15.3633 163.684 14.2266 164.177 13.2266C164.669 12.2188 165.364 11.4453 166.262 10.9062C167.169 10.3594 168.2 10.0859 169.356 10.0859C171.091 10.0859 172.454 10.6328 173.446 11.7266C174.446 12.8203 174.946 14.3711 174.946 16.3789V17.7617H166.872C166.981 18.5898 167.309 19.2539 167.856 19.7539C168.411 20.2539 169.11 20.5039 169.954 20.5039C171.259 20.5039 172.278 20.0312 173.012 19.0859L174.677 20.9492C174.169 21.668 173.481 22.2305 172.614 22.6367C171.747 23.0352 170.786 23.2344 169.731 23.2344ZM169.345 12.8281C168.673 12.8281 168.126 13.0547 167.704 13.5078C167.29 13.9609 167.024 14.6094 166.907 15.4531H171.618V15.1836C171.602 14.4336 171.399 13.8555 171.009 13.4492C170.618 13.0352 170.063 12.8281 169.345 12.8281ZM186.147 19.4961C186.147 19.082 185.94 18.7578 185.526 18.5234C185.12 18.2812 184.463 18.0664 183.557 17.8789C180.541 17.2461 179.034 15.9648 179.034 14.0352C179.034 12.9102 179.498 11.9727 180.428 11.2227C181.366 10.4648 182.588 10.0859 184.096 10.0859C185.705 10.0859 186.991 10.4648 187.952 11.2227C188.92 11.9805 189.405 12.9648 189.405 14.1758H186.018C186.018 13.6914 185.862 13.293 185.549 12.9805C185.237 12.6602 184.748 12.5 184.084 12.5C183.514 12.5 183.073 12.6289 182.76 12.8867C182.448 13.1445 182.291 13.4727 182.291 13.8711C182.291 14.2461 182.467 14.5508 182.819 14.7852C183.178 15.0117 183.78 15.2109 184.623 15.3828C185.467 15.5469 186.178 15.7344 186.756 15.9453C188.545 16.6016 189.44 17.7383 189.44 19.3555C189.44 20.5117 188.944 21.4492 187.952 22.168C186.959 22.8789 185.678 23.2344 184.108 23.2344C183.045 23.2344 182.1 23.0469 181.272 22.6719C180.452 22.2891 179.807 21.7695 179.338 21.1133C178.87 20.4492 178.635 19.7344 178.635 18.9688H181.846C181.877 19.5703 182.1 20.0312 182.514 20.3516C182.928 20.6719 183.483 20.832 184.178 20.832C184.827 20.832 185.315 20.7109 185.643 20.4688C185.979 20.2188 186.147 19.8945 186.147 19.4961Z" fill="#A23DAD"/>
</g>
<defs>
<filter id="filter0_d_225_2" x="37.793" y="5" width="155.647" height="26.2344" filterUnits="userSpaceOnUse" color-interpolation-filters="sRGB">
<feFlood flood-opacity="0" result="BackgroundImageFix"/>
<feColorMatrix in="SourceAlpha" type="matrix" values="0 0 0 0 0 0 0 0 0 0 0 0 0 0 0 0 0 0 127 0" result="hardAlpha"/>
<feOffset dy="4"/>
<feGaussianBlur stdDeviation="2"/>
<feColorMatrix type="matrix" values="0 0 0 0 0 0 0 0 0 0 0 0 0 0 0 0 0 0 0.25 0"/>
<feBlend mode="normal" in2="BackgroundImageFix" result="effect1_dropShadow_225_2"/>
<feBlend mode="normal" in="SourceGraphic" in2="effect1_dropShadow_225_2" result="shape"/>
</filter>
</defs>
</svg>
